<?xml version="1.0" standalone="no"?>
<!DOCTYPE svg PUBLIC "-//W3C//DTD SVG 20010904//EN"
 "http://www.w3.org/TR/2001/REC-SVG-20010904/DTD/svg10.dtd">
<svg version="1.0" xmlns="http://www.w3.org/2000/svg"
 width="1024.000000pt" height="1024.000000pt" viewBox="0 0 1024.000000 1024.000000"
 preserveAspectRatio="xMidYMid meet">
<metadata>
Created by potrace 1.11, written by Peter Selinger 2001-2013
</metadata>
<g transform="translate(0.000000,1024.000000) scale(0.100000,-0.100000)"
fill="#000000" stroke="none">
<path d="M0 5120 l0 -5120 5120 0 5120 0 0 5120 0 5120 -5120 0 -5120 0 0
-5120z m4610 3986 c345 -38 639 -94 905 -171 204 -60 343 -112 515 -196 381
-185 611 -406 676 -652 11 -42 14 -205 14 -847 0 -437 3 -805 6 -817 l6 -23
1094 0 1094 0 0 -105 0 -105 100 0 100 0 0 -2535 0 -2535 -2060 0 -2060 0 0
105 0 105 -100 0 -100 0 0 335 0 335 -22 -5 c-146 -34 -876 -56 -1174 -36
-805 56 -1463 240 -1895 529 -234 157 -370 328 -415 518 -12 52 -14 444 -15
2572 l0 2510 24 62 c73 179 239 353 472 492 416 249 1045 420 1755 477 184 15
909 6 1080 -13z"/>
<path d="M5405 5531 c-64 -27 -81 -110 -32 -158 l27 -28 1320 0 1320 0 27 28
c38 38 38 96 0 134 l-27 28 -1308 2 c-719 1 -1316 -2 -1327 -6z"/>
<path d="M5405 4891 c-64 -27 -81 -110 -32 -158 l27 -28 840 0 840 0 27 27
c38 39 38 97 0 136 l-27 27 -828 2 c-455 1 -836 -2 -847 -6z"/>
<path d="M5405 4251 c-64 -27 -81 -110 -32 -158 l27 -28 840 0 840 0 27 27
c38 39 38 97 0 136 l-27 27 -828 2 c-455 1 -836 -2 -847 -6z"/>
<path d="M5405 3611 c-64 -27 -81 -110 -32 -158 l27 -28 1320 0 1320 0 27 28
c38 38 38 96 0 134 l-27 28 -1308 2 c-719 1 -1316 -2 -1327 -6z"/>
<path d="M5405 2971 c-64 -27 -81 -110 -32 -158 l27 -28 1320 0 1320 0 27 28
c38 38 38 96 0 134 l-27 28 -1308 2 c-719 1 -1316 -2 -1327 -6z"/>
</g>
</svg>
